<svg xmlns="http://www.w3.org/2000/svg" xmlns:xlink="http://www.w3.org/1999/xlink" width="1024" height="1024" viewBox="0 0 1024 1024"><metadata><rdf:RDF xmlns:rdf="http://www.w3.org/1999/02/22-rdf-syntax-ns#" xmlns:dc="http://purl.org/dc/elements/1.1/"><rdf:Description><dc:creator>RealFaviconGenerator</dc:creator><dc:source>https://realfavicongenerator.net</dc:source></rdf:Description></rdf:RDF></metadata><path fill="#00E5A0" d="M511.456 0L512.536 0C515.145 9.85056 519.228 20.9077 522.701 30.6297L540.077 78.5865C558.211 129.442 575.937 180.442 593.255 231.582C597.188 224.418 600.963 212.266 604.16 204.24L630.281 138.796C634.119 129.267 640.091 113.123 644.619 104.693C659.261 145.842 674.862 186.727 689.326 228.01L711.237 292.127C714.928 303.076 718.886 315.895 722.945 326.541C727.244 313.364 734.382 297.695 740.018 284.834L763.492 231.71C766.413 225.221 775.867 202.487 778.983 197.7L819.957 269.002C824.684 277.097 831.09 288.847 836.114 296.44C849.979 300.835 865.77 304.612 879.907 308.437L944.158 326.048C953.366 328.5 967.577 331.585 975.988 334.223C977.966 334.684 979.338 335.163 981.266 335.81C973.599 336.557 970.932 336.358 963.233 336.284C929.283 336.757 894.075 335.989 859.943 336.217C840.309 336.347 811.552 337.198 792.811 336.031C790.306 329.423 787.341 320.928 784.501 314.614C782.08 318.772 779.867 325.038 778.066 329.642C774.367 339.09 770.775 348.58 767.292 358.111C758.433 381.959 748.708 406.41 739.373 430.072C734.24 443.084 727.366 464.309 721.24 476.298C699.775 421.733 679.094 366.864 659.205 311.705C654.559 298.932 650.023 286.119 645.596 273.268C643.589 267.437 639.908 255.524 637.25 250.713C630.589 266.514 624.472 284.55 618.582 300.79C612.746 316.567 606.798 332.301 600.737 347.993C597.86 355.534 590.535 376.084 587.087 382.455C578.486 357.485 567.123 332.479 558.066 307.609C545.932 274.288 534.086 240.837 521.326 207.75C518.2 199.71 511.07 178.751 506.869 172.62C506.29 179.013 501.074 191.525 498.62 198.151C495.792 205.858 493.005 213.579 490.257 221.315C472.197 270.425 453.688 319.368 434.731 368.139C427.43 386.542 420.261 404.998 413.224 423.504C409.288 433.609 402.231 450.518 399.618 460.566C417.05 466.302 437.608 472.313 454.6 478.452C457.249 485.597 459.264 494.197 461.208 501.608C463.333 509.531 465.55 517.429 467.858 525.301C469.398 530.676 470.623 536.278 472.957 541.324C485.406 508.11 499.057 475.25 511.602 442.086C521.132 416.64 530.816 391.253 540.656 365.926C544.545 355.927 548.424 344.915 552.621 335.137C555.037 342.892 559.148 352.547 562.225 360.351L582.174 410.609C589.517 429.96 597.078 449.227 604.857 468.407C607.476 475.051 613.631 491.873 616.684 497.532C625.832 500.979 637.906 504.32 647.526 507.248L697.004 522.183L795.717 551.938C810.109 556.265 829.996 561.378 843.569 566.383C836.497 579.077 829.662 592.585 822.88 605.493L781.623 684.82L720.863 800.115C709.458 821.957 698.545 844.064 686.933 865.772C683.811 871.608 680.093 880.6 676.842 885.754C674.331 877.966 672.538 870.141 670.376 862.272C656.808 812.865 645.186 762.657 630.882 713.479C627.041 721.611 622.518 735.159 619.208 743.919L597.432 801.987L540.643 951.553L523.23 997.715C520.334 1005.58 516.748 1016.59 513.597 1024L513.252 1024C512.603 1017 501.913 991.956 499.269 984.312C494.334 970.045 488.691 955.23 483.594 940.983L447.109 838.161C444.305 830.405 441.542 822.635 438.817 814.852C436.782 809.042 433.952 800.229 430.974 795.033C418.734 823.342 406.751 851.762 395.027 880.289C390.437 891.176 384.35 907.195 379.213 917.235C372.593 901.202 366.52 881.589 360.545 864.928L324.528 764.814C320.832 754.422 304.133 706.711 299.18 700.367C296.849 707.313 293.056 715.649 290.324 722.661C283.587 739.949 276.01 756.926 268.761 773.998L254.594 807.595C252.118 813.431 248.956 821.465 246.053 826.893C241.659 819.975 237.246 811.389 233.125 804.127L207.408 758.514C204.106 752.565 193.561 732.722 189.39 728.438C182.741 726.724 175.744 724.443 169.017 722.63C130.128 711.894 91.1145 701.613 51.9846 691.791C52.2614 690.557 52.4013 690.637 53.6154 690.186L54.2672 689.864C56.4382 689.912 57.0319 689.892 59.1201 689.587C64.3561 689.254 71.6737 689.447 77.117 689.415L120.927 689.495L231.456 689.322C235.316 696.79 235.965 701.928 239.015 709.354C244.478 698.453 251.781 678.379 256.338 666.845L285.411 594.736C290.895 581.111 297.07 563.846 303.25 550.81C307.233 559.842 311.01 570.319 314.573 579.631L335.807 636.014C346.469 664.189 356.82 692.284 366.56 720.795C372.628 738.559 380.198 757.807 385.504 775.682C389.233 768.571 396.108 749.179 399.44 740.582L423.202 680.281C427.626 668.974 433.302 653.052 438.282 642.444C447.371 668.783 458.402 695.172 468.323 721.308L490.436 778.878C499.105 801.849 508.09 826.352 517.324 849.016C519.862 844.278 527.357 822.215 529.696 815.901L556.284 745.33C570.433 708.252 584.157 670.507 598.596 633.626L616.443 588.621C619.569 580.704 623.681 570.978 626.123 563.015C611.814 558.854 588.12 553.471 574.88 548.112C570.785 536.651 566.777 525.158 562.856 513.636C560.091 505.312 555.199 489.197 551.078 481.953C537.242 520.035 522.455 557.454 508.415 595.405C500.539 616.6 492.556 637.755 484.466 658.87C481.058 667.696 477.048 679.254 473.276 687.64C469.915 677.677 464.552 665.869 460.522 655.975L433.687 589.735C427.283 573.496 421.149 557.097 415.053 540.739C413.366 536.214 411.775 531.03 409.409 526.859C405.441 524.78 395.726 522.138 391.071 520.747C382.399 518.151 373.753 515.468 365.134 512.698C321.12 498.763 277.006 485.147 232.795 471.852C222.126 468.544 211.438 465.299 200.731 462.116C194.865 460.371 186.77 458.258 181.349 456.09L273.769 283.015C298.7 235.162 323.176 187.074 347.193 138.755C349.385 144.945 351.601 154.032 353.447 160.608L367.578 211.803C374.15 234.318 380.468 256.907 386.529 279.565C388.89 288.262 393.301 302.616 394.746 310.812C397.623 305.43 399.803 298.764 401.951 292.962L411.513 267.202C424.633 232.413 437.511 197.533 450.147 162.565L491.424 54.0606C498.387 35.7404 505.989 18.8821 511.456 0ZM277.263 417.494C302.96 426.875 328.741 436.025 354.603 444.944C364.2 448.391 373.837 451.725 383.512 454.946C387.79 456.383 393.836 458.722 398.07 459.443C396.463 453.597 393.121 446.54 390.873 440.711C384.78 424.79 378.503 408.94 372.044 393.163C360.3 363.642 349.226 333.947 337.821 304.295C337.164 302.587 336.385 301.441 335.056 300.208C331.362 310.357 326.665 317.557 322.387 326.843C312.971 347.285 302.766 366.756 292.478 386.713C288.941 393.573 279.424 411.206 277.263 417.494ZM689.107 720.578C692.188 716.299 695.133 710.04 697.597 705.257C701.374 697.967 705.113 690.658 708.814 683.329C720.08 659.94 736.301 631.508 746.195 608.195C740.812 604.932 726.353 600.206 719.612 597.743L674.639 581.149C662.121 576.534 641.543 567.549 629.323 564.139C638.369 590.938 651.449 621.325 661.823 648.049C670.979 671.636 679.677 697.515 689.107 720.578Z"></path><path fill="#34DCA7" d="M975.988 334.223C977.966 334.684 979.338 335.163 981.266 335.81C973.599 336.557 970.932 336.358 963.233 336.284C966.861 335.692 974.06 336.968 975.988 334.223Z"></path><path fill="#34DCA7" d="M46.93 690.399C49.6255 690 51.5562 689.854 54.2672 689.864L53.6154 690.186C52.4013 690.637 52.2614 690.557 51.9846 691.791C50.2772 691.413 48.5902 690.948 46.93 690.399Z"></path><path fill="#5BD7B8" fill-opacity="0.89019608" d="M46.93 690.399C46.6819 690.299 45.7645 690.087 45.993 689.651C46.5727 689.268 57.5703 689.539 59.1201 689.587C57.0319 689.892 56.4382 689.912 54.2672 689.864C51.5562 689.854 49.6255 690 46.93 690.399Z"></path></svg>